HIERARCHY
ROOT Hips
{
    OFFSET 0.000000 0.000000 0.000000
    CHANNELS 6 Xposition Yposition Zposition Zrotation Xrotation Yrotation
        JOINT Chest
        {
            OFFSET -0.000000 32.910728 -0.000000
            CHANNELS 3 Zrotation Xrotation Yrotation
            JOINT Neck
            {
                OFFSET -0.000000 24.872103 0.000000
                CHANNELS 3 Zrotation Xrotation Yrotation
                JOINT Head
                {
                    OFFSET -0.000000 10.694444 0.000000
                    CHANNELS 3 Zrotation Xrotation Yrotation
                    End Site
                    {
                        OFFSET -0.000000 16.527781 0.000000
                    }
                }
            }
            JOINT LeftCollar
            {
                OFFSET -0.000000 24.872103 0.000000
                CHANNELS 3 Zrotation Xrotation Yrotation
                JOINT LeftShoulder
                {
                    OFFSET 20.500000 -0.000000 0.000000
                    CHANNELS 3 Zrotation Xrotation Yrotation
                    JOINT LeftElbow
                    {
                        OFFSET 20.261999 0.000000 0.000000
                        CHANNELS 3 Zrotation Xrotation Yrotation
                        JOINT LeftWrist
                        {
                            OFFSET 25.372869 0.000000 0.000000
                            CHANNELS 3 Zrotation Xrotation Yrotation
                            End Site
                            {
                                OFFSET 0.000000 -14.583331 0.000000
                            }
                        }
                    }
                }
            }
            JOINT RightCollar
            {
                OFFSET -0.000000 24.872103 0.000000
                CHANNELS 3 Zrotation Xrotation Yrotation
                JOINT RightShoulder
                {
                    OFFSET -20.500000 0.000000 0.000000
                    CHANNELS 3 Zrotation Xrotation Yrotation
                    JOINT RightElbow
                    {
                        OFFSET -20.261999 0.000000 0.000000
                        CHANNELS 3 Zrotation Xrotation Yrotation
                        JOINT RightWrist
                        {
                            OFFSET -25.372869 0.000000 0.000000
                            CHANNELS 3 Zrotation Xrotation Yrotation
                            End Site
                            {
                                OFFSET -0.000000 -14.583331 0.000000
                            }
                        }
                    }
                }
            }
        }
    JOINT LeftHip
    {
        OFFSET 11.666668 0.000000 0.000000
        CHANNELS 3 Zrotation Xrotation Yrotation
        JOINT LeftKnee
        {
            OFFSET -0.000000 -37.459236 0.000000
            CHANNELS 3 Zrotation Xrotation Yrotation
            JOINT LeftAnkle
            {
                OFFSET -0.000000 -38.972313 0.000000
                CHANNELS 3 Zrotation Xrotation Yrotation
                End Site
                {
                    OFFSET -0.000000 -4.861111 16.527781
                }
            }
        }
    }
    JOINT RightHip
    {
        OFFSET -11.666668 0.000000 0.000000
        CHANNELS 3 Zrotation Xrotation Yrotation
        JOINT RightKnee
        {
            OFFSET -0.000000 -37.459236 0.000000
            CHANNELS 3 Zrotation Xrotation Yrotation
            JOINT RightAnkle
            {
                OFFSET -0.000000 -38.972313 0.000000
                CHANNELS 3 Zrotation Xrotation Yrotation
                End Site
                {
                    OFFSET -0.000000 -4.861111 16.527781
                }
            }
        }
    }
}
MOTION
Frames:    5
Frame Time:    0.010000
-12.143419    85.550812    -8.909847    -0.452942    -1.228970    -33.670029    3.438501    16.159998    -3.197855    3.129868    -8.587282    8.996637    -6.826416    -2.032363    8.709669    -28.922916    -1.073461    4.293268    36.214394    65.076477    -96.134476    56.376057    -15.834328    -29.152277    94.066566    11.968907    99.969826    29.901674    -4.780914    -17.645561    17.737482    49.326015    27.976059    -3.934192    -2.926081    72.744888    -90.097389    -10.710811    -19.007578    2.177441    -7.387988    6.845188    -1.440471    24.943180    21.959373    -4.195595    -5.284157    2.933297    0.316177    -11.466726    -4.925800    -2.451255    28.240257    -1.022231    -0.024951    -15.619987    0.513991    
-12.219707    85.539383    -8.933514    -0.582460    -1.311834    -33.774006    3.471288    16.328197    -3.112065    2.294121    -8.436253    9.575846    -7.374640    -2.571275    9.248474    -29.208548    -1.199779    4.991354    31.829994    65.141037    -91.864258    55.862415    -15.925852    -30.117451    94.337883    11.929291    99.258102    29.731371    -4.567101    -16.530575    17.750837    49.847019    27.657194    -3.843909    -2.798598    72.866592    -90.312614    -10.501711    -19.011484    2.443788    -7.260314    7.155003    -1.586511    25.064091    21.745981    -4.116052    -5.351681    2.957087    0.464330    -11.368114    -4.683299    -2.412022    28.326462    -1.080714    -0.035386    -15.649943    0.434595    
-12.232241    85.510567    -8.937749    -0.554202    -1.310441    -33.762062    3.490970    16.331823    -3.199442    2.276726    -8.489986    9.572617    -7.507453    -2.586663    9.233690    -29.150000    -1.268930    5.073583    33.575680    65.002007    -93.640976    56.047394    -15.982196    -29.524809    94.038551    11.669681    99.452873    29.727283    -4.491467    -16.629480    17.619122    49.775795    27.930645    -3.941725    -2.937447    72.784981    -90.166374    -10.526706    -19.008516    2.465484    -7.325456    7.040724    -1.699525    25.151075    21.887804    -4.162663    -5.365341    2.963250    0.451526    -11.435640    -4.763565    -2.460900    28.433380    -1.039294    -0.070229    -15.724368    0.484806    
-12.261065    85.503960    -8.947460    -0.578015    -1.331455    -33.788761    3.518156    16.379900    -3.213064    2.227135    -8.539154    9.607477    -7.473515    -2.554475    9.274339    -29.169260    -1.305030    5.029563    33.058289    65.067726    -93.139755    55.900726    -15.980873    -29.703251    94.075165    11.709624    99.433517    29.714108    -4.441383    -16.611334    17.597391    49.765244    28.012783    -4.018437    -2.995593    72.761971    -90.189262    -10.478146    -19.062271    2.554974    -7.327661    7.084587    -1.791016    25.241556    21.870201    -4.159276    -5.399002    2.985785    0.487192    -11.442316    -4.731339    -2.471931    28.509615    -1.035304    -0.081317    -15.766226    0.487014    
-12.291862    85.497681    -8.958117    -0.598895    -1.350762    -33.816963    3.548494    16.426241    -3.233245    2.202873    -8.601145    9.630477    -7.471087    -2.512140    9.301005    -29.185789    -1.306474    4.958032    32.588150    65.100571    -92.683960    55.762615    -15.983859    -29.848717    94.062737    11.651567    99.368462    29.691671    -4.434707    -16.625719    17.597010    49.772190    28.087507    -4.113166    -3.069136    72.731827    -90.195267    -10.432811    -19.114994    2.649529    -7.344861    7.122436    -1.893162    25.356186    21.848223    -4.153657    -5.440704    3.022536    0.521583    -11.459335    -4.705155    -2.486690    28.599108    -1.027707    -0.090966    -15.814221    0.499077    
